nColumns=19
nRows=93
DataType=double
version=3
OpenSimVersion=4.1
endheader
time	ground_force_1_vx	ground_force_1_vy	ground_force_1_vz	ground_force_1_px	ground_force_1_py	ground_force_1_pz	ground_force_1_mx	ground_force_1_my	ground_force_1_mz	ground_force_2_vx	ground_force_2_vy	ground_force_2_vz	ground_force_2_px	ground_force_2_py	ground_force_2_pz	ground_force_2_mx	ground_force_2_my	ground_force_2_mz
0	-15.0023	146.373	4.96328	0.135242	0.006	-0.222489	0	0.166385	0	0	0	0	0.742166	0	-0.221524	0	0	0
0.01	-22.2833	189.288	5.00701	0.137335	0.006	-0.222134	0	0.170025	0	0	0	0	0.742166	0	-0.221524	0	0	0
0.02	-30.7767	235.534	4.82383	0.140048	0.006	-0.221634	0	0.178618	0	0	0	0	0.742166	0	-0.221524	0	0	0
0.03	-40.2145	283.748	4.33153	0.142996	0.006	-0.221056	0	0.194697	0	0	0	0	0.742166	0	-0.221524	0	0	0
0.04	-50.185	332.6	3.45495	0.146134	0.006	-0.220406	0	0.221269	0	0	0	0	0.742166	0	-0.221524	0	0	0
0.05	-60.2493	380.782	2.15074	0.149411	0.006	-0.219693	0	0.260429	0	0	0	0	0.742166	0	-0.221524	0	0	0
0.06	-69.9717	427.082	0.416974	0.152773	0.006	-0.218928	0	0.314796	0	0	0	0	0.742166	0	-0.221524	0	0	0
0.07	-78.947	470.438	-1.69779	0.156165	0.006	-0.218126	0	0.389164	0	0	0	0	0.742166	0	-0.221524	0	0	0
0.08	-86.8069	509.944	-4.09489	0.159536	0.006	-0.217298	0	0.489033	0	0	0	0	0.742166	0	-0.221524	0	0	0
0.09	-93.2689	544.974	-6.66555	0.162851	0.006	-0.216452	0	0.61611	0	0	0	0	0.742166	0	-0.221524	0	0	0
0.1	-98.1878	575.291	-9.31744	0.166093	0.006	-0.21559	0	0.766312	0	0	0	0	0.742166	0	-0.221524	0	0	0
0.11	-101.525	600.941	-11.9656	0.169252	0.006	-0.214714	0	0.931839	0	0	0	0	0.742166	0	-0.221524	0	0	0
0.12	-103.3	622.085	-14.5321	0.172322	0.006	-0.213823	0	1.1026	0	0	0	0	0.742166	0	-0.221524	0	0	0
0.13	-103.566	638.883	-16.9579	0.175298	0.006	-0.212917	0	1.26675	0	0	0	0	0.742166	0	-0.221524	0	0	0
0.14	-102.421	651.457	-19.2072	0.178182	0.006	-0.211992	0	1.41223	0	0	0	0	0.742166	0	-0.221524	0	0	0
0.15	-100.01	659.911	-21.2601	0.180985	0.006	-0.211042	0	1.52856	0	0	0	0	0.742166	0	-0.221524	0	0	0
0.16	-96.5196	664.38	-23.1052	0.183726	0.006	-0.210063	0	1.60806	0	0	0	0	0.742166	0	-0.221524	0	0	0
0.17	-92.1627	665.086	-24.7273	0.186432	0.006	-0.209052	0	1.64642	0	0	0	0	0.742166	0	-0.221524	0	0	0
0.18	-87.1665	662.38	-26.0958	0.18913	0.006	-0.208011	0	1.64225	0	0	0	0	0.742166	0	-0.221524	0	0	0
0.19	-81.7555	656.731	-27.1636	0.19185	0.006	-0.206949	0	1.59625	0	0	0	0	0.742166	0	-0.221524	0	0	0
0.2	-76.1347	648.686	-27.8776	0.194618	0.006	-0.205876	0	1.51029	0	0	0	0	0.742166	0	-0.221524	0	0	0
0.21	-70.4803	638.818	-28.1945	0.197453	0.006	-0.204807	0	1.38666	0	0	0	0	0.742166	0	-0.221524	0	0	0
0.22	-64.9332	627.678	-28.0937	0.200371	0.006	-0.203755	0	1.22778	0	0	0	0	0.742166	0	-0.221524	0	0	0
0.23	-59.5974	615.77	-27.5855	0.203377	0.006	-0.202731	0	1.03647	0	0	0	0	0.742166	0	-0.221524	0	0	0
0.24	-54.5435	603.54	-26.712	0.206474	0.006	-0.201742	0	0.816284	0	0	0	0	0.742166	0	-0.221524	0	0	0
0.25	-49.8128	591.374	-25.541	0.209654	0.006	-0.200793	0	0.571571	0	0	0	0	0.742166	0	-0.221524	0	0	0
0.26	-45.4191	579.593	-24.1566	0.212907	0.006	-0.199881	0	0.307344	0	0	0	0	0.742166	0	-0.221524	0	0	0
0.27	-41.3497	568.465	-22.6486	0.216212	0.006	-0.199005	0	0.029051	0	0	0	0	0.742166	0	-0.221524	0	0	0
0.28	-37.5675	558.203	-21.1031	0.219549	0.006	-0.198158	0	-0.257806	0	0	0	0	0.742166	0	-0.221524	0	0	0
0.29	-34.0142	548.983	-19.5957	0.222887	0.006	-0.197336	0	-0.54806	0	0	0	0	0.742166	0	-0.221524	0	0	0
0.3	-30.6154	540.962	-18.1906	0.226196	0.006	-0.196532	0	-0.837049	0	0	0	0	0.742166	0	-0.221524	0	0	0
0.31	-27.2881	534.29	-16.9406	0.229444	0.006	-0.195741	0	-1.12052	0	0	0	0	0.742166	0	-0.221524	0	0	0
0.32	-23.9477	529.12	-15.8891	0.232602	0.006	-0.194956	0	-1.39442	0	0	0	0	0.742166	0	-0.221524	0	0	0
0.33	-20.5141	525.608	-15.0706	0.235648	0.006	-0.194172	0	-1.65467	0	0	0	0	0.742166	0	-0.221524	0	0	0
0.34	-16.9162	523.915	-14.5115	0.238567	0.006	-0.193384	0	-1.89706	0	0	0	0	0.742166	0	-0.221524	0	0	0
0.35	-13.0956	524.197	-14.2316	0.241355	0.006	-0.192589	0	-2.11718	0	0	0	0	0.742166	0	-0.221524	0	0	0
0.36	-9.00819	526.59	-14.2459	0.244016	0.006	-0.191785	0	-2.31055	0	0	0	0	0.742166	0	-0.221524	0	0	0
0.37	-4.6234	531.197	-14.5642	0.246561	0.006	-0.190977	0	-2.47285	0	0	0	0	0.742166	0	-0.221524	0	0	0
0.38	0.0782626	538.062	-15.1885	0.249007	0.006	-0.190172	0	-2.60029	0	0	0	0	0.742166	0	-0.221524	0	0	0
0.39	5.10711	547.161	-16.1092	0.251372	0.006	-0.189381	0	-2.69023	0	0	0	0	0.742166	0	-0.221524	0	0	0
0.4	10.4648	558.385	-17.3021	0.253677	0.006	-0.18862	0	-2.74155	0	0	0	0	0.742166	0	-0.221524	0	0	0
0.41	16.1454	571.536	-18.7251	0.255945	0.006	-0.187904	0	-2.75496	0	0	0	0	0.742166	0	-0.221524	0	0	0
0.42	22.1378	586.311	-20.3207	0.258195	0.006	-0.18725	0	-2.73288	0	0	0	0	0.742166	0	-0.221524	0	0	0
0.43	28.4286	602.292	-22.019	0.260449	0.006	-0.186672	0	-2.67886	0	0	0	0	0.742166	0	-0.221524	0	0	0
0.44	35.0031	618.951	-23.7424	0.262725	0.006	-0.186177	0	-2.59702	0	0	0	0	0.742166	0	-0.221524	0	0	0
0.45	41.8436	635.678	-25.41	0.265039	0.006	-0.185772	0	-2.49165	0	0	0	0	0.742166	0	-0.221524	0	0	0
0.46	48.9245	651.811	-26.942	0.267407	0.006	-0.185458	0	-2.36694	0	0	0	0	0.742166	0	-0.221524	0	0	0
0.47	56.2058	666.673	-28.2625	0.269835	0.006	-0.185235	0	-2.22687	0	0	0	0	0.742166	0	-0.221524	0	0	0
0.48	63.6277	679.602	-29.2983	0.272327	0.006	-0.185101	0	-2.0753	0	0	0	0	0.742166	0	-0.221524	0	0	0
0.49	71.1069	689.972	-29.9787	0.274881	0.006	-0.185052	0	-1.91625	0	0	0	0	0.742166	0	-0.221524	0	0	0
0.5	78.5379	697.201	-30.2381	0.27749	0.006	-0.185086	0	-1.75404	0	0	0	0	0.742166	0	-0.221524	0	0	0
0.51	85.7942	700.768	-30.0199	0.280144	0.006	-0.185195	0	-1.59319	0	0	0	0	0.742166	0	-0.221524	0	0	0
0.52	92.7292	700.204	-29.282	0.282828	0.006	-0.185373	0	-1.43817	0	0.271534	36.3412	-4.34973	0.770732	0.006	-0.236475	0	0.62108	0
0.53	99.1745	695.102	-28.0046	0.28553	0.006	-0.18561	0	-1.29273	0	-2.19802	58.0955	-5.08911	0.790416	0.006	-0.246051	0	0.637781	0
0.54	104.941	685.114	-26.1984	0.288238	0.006	-0.185896	0	-1.15921	0	-5.68082	84.4902	-5.91275	0.801927	0.006	-0.251052	0	0.641348	0
0.55	109.824	669.967	-23.9084	0.29094	0.006	-0.186218	0	-1.03805	0	-10.3472	115.514	-6.79501	0.8098	0.006	-0.254013	0	0.635141	0
0.56	113.608	649.482	-21.2132	0.293633	0.006	-0.186561	0	-0.927974	0	-16.3501	150.8	-7.69497	0.815811	0.006	-0.255902	0	0.618972	0
0.57	116.079	623.594	-18.2194	0.296313	0.006	-0.18691	0	-0.826485	0	-23.7976	189.522	-8.55083	0.820822	0.006	-0.257167	0	0.591369	0
0.58	117.038	592.389	-15.0543	0.298985	0.006	-0.18725	0	-0.730666	0	-32.588	230.527	-9.25194	0.825298	0.006	-0.258057	0	0.551534	0
0.59	116.313	556.14	-11.8547	0.301659	0.006	-0.187568	0	-0.638126	0	-42.3352	272.653	-9.63327	0.829481	0.006	-0.258728	0	0.499203	0
0.6	113.788	515.34	-8.75583	0.304352	0.006	-0.187853	0	-0.547417	0	-52.5904	314.716	-9.5358	0.83349	0.006	-0.259275	0	0.43436	0
0.61	109.425	470.71	-5.87984	0.307086	0.006	-0.188093	0	-0.4581	0	-62.8726	355.591	-8.85408	0.837374	0.006	-0.259755	0	0.355951	0
0.62	103.292	423.198	-3.32253	0.309892	0.006	-0.188283	0	-0.371136	0	-72.69	394.319	-7.56296	0.841138	0.006	-0.260195	0	0.259796	0
0.63	95.566	373.937	-1.14662	0.312805	0.006	-0.188418	0	-0.288701	0	-81.5762	430.145	-5.72699	0.844762	0.006	-0.26061	0	0.139681	0
0.64	86.5374	324.187	0.618501	0.315872	0.006	-0.1885	0	-0.213453	0	-89.1279	462.544	-3.46983	0.848227	0.006	-0.261002	0	-0.008884	0
0.65	76.588	275.237	1.97203	0.319149	0.006	-0.18853	0	-0.14758	0	-95.0776	491.269	-0.939742	0.851523	0.006	-0.261372	0	-0.186277	0
0.66	66.1554	228.311	2.93425	0.32272	0.006	-0.18851	0	-0.092218	0	-99.2949	516.317	1.711	0.854649	0.006	-0.261717	0	-0.389047	0
0.67	55.6811	184.477	3.5393	0.326718	0.006	-0.188435	0	-0.047398	0	-101.746	537.814	4.34358	0.857611	0.006	-0.262038	0	-0.610782	0
0.68	45.5626	144.587	3.83235	0.331366	0.006	-0.18829	0	-0.012585	0	-102.475	555.931	6.84964	0.860418	0.006	-0.26233	0	-0.842678	0
0.69	36.1256	109.234	3.86824	0.337073	0.006	-0.188041	0	0.012651	0	-101.587	570.847	9.16148	0.863086	0.006	-0.262596	0	-1.07456	0
0.7	27.6138	78.7427	3.70778	0.344637	0.006	-0.187615	0	0.028032	0	-99.2475	582.741	11.2485	0.865639	0.006	-0.262837	0	-1.29615	0
0.71	20.1857	53.1768	3.41159	0.355821	0.006	-0.18685	0	0.031587	0	-95.6815	591.805	13.1054	0.86811	0.006	-0.263053	0	-1.49814	0
0.72	13.9145	32.3779	3.03384	0.375368	0.006	-0.185295	0	0.016232	0	-91.1564	598.277	14.7376	0.87054	0.006	-0.26324	0	-1.67313	0
0.73	0	0	0	0.410316	0	-0.183133	0	0	0	-85.9583	602.446	16.1477	0.872971	0.006	-0.263394	0	-1.81603	0
0.74	0	0	0	0.440955	0	-0.182969	0	0	0	-80.3654	604.653	17.3268	0.875448	0.006	-0.263504	0	-1.92363	0
0.75	0	0	0	0.471595	0	-0.182805	0	0	0	-74.6245	605.266	18.2531	0.878009	0.006	-0.263558	0	-1.99371	0
0.76	0	0	0	0.502234	0	-0.182641	0	0	0	-68.9351	604.649	18.8976	0.880683	0.006	-0.263543	0	-2.0241	0
0.77	0	0	0	0.532874	0	-0.182477	0	0	0	-63.4446	603.139	19.2356	0.883493	0.006	-0.263449	0	-2.01235	0
0.78	0	0	0	0.563513	0	-0.182313	0	0	0	-58.2531	601.028	19.2581	0.886449	0.006	-0.263268	0	-1.9559	0
0.79	0	0	0	0.594153	0	-0.182149	0	0	0	-53.4234	598.552	18.9776	0.889555	0.006	-0.262997	0	-1.85279	0
0.8	0	0	0	0.624793	0	-0.181985	0	0	0	-48.989	595.891	18.4267	0.892806	0.006	-0.262639	0	-1.70254	0
0.81	0	0	0	0.655432	0	-0.181821	0	0	0	-44.9609	593.175	17.6529	0.896194	0.006	-0.262202	0	-1.50675	0
0.82	0	0	0	0.686072	0	-0.181657	0	0	0	-41.3314	590.493	16.7116	0.899703	0.006	-0.261698	0	-1.26918	0
0.83	0	0	0	0.716711	0	-0.181493	0	0	0	-38.0751	587.903	15.6604	0.903319	0.006	-0.261141	0	-0.995459	0
0.84	0	0	0	0.747351	0	-0.181328	0	0	0	-35.1506	585.439	14.5548	0.907025	0.006	-0.260545	0	-0.692384	0
0.85	0	0	0	0.77799	0	-0.181164	0	0	0	-32.5027	583.117	13.4456	0.910805	0.006	-0.259926	0	-0.367266	0
0.86	0	0	0	0.80863	0	-0.181	0	0	0	-30.0645	580.957	12.3777	0.914645	0.006	-0.259296	0	-0.027361	0
0.87	0	0	0	0.839269	0	-0.180836	0	0	0	-27.7622	578.991	11.3893	0.91853	0.006	-0.258668	0	0.320453	0
0.88	0	0	0	0.869909	0	-0.180672	0	0	0	-25.5204	577.279	10.5112	0.922444	0.006	-0.258052	0	0.669932	0
0.89	0	0	0	0.900549	0	-0.180508	0	0	0	-23.2672	575.907	9.767	0.926369	0.006	-0.257458	0	1.01569	0
0.9	0	0	0	0.931188	0	-0.180344	0	0	0	-20.9368	574.99	9.17304	0.930283	0.006	-0.256894	0	1.35322	0
0.91	0	0	0	0.961828	0	-0.18018	0	0	0	-18.4707	574.664	8.73848	0.934161	0.006	-0.256367	0	1.67877	0
0.92	0	0	0	0.992467	0	-0.180016	0	0	0	-15.8173	575.079	8.46647	0.937975	0.006	-0.255884	0	1.98903	0
